<?xml version="1.0" encoding="UTF-8" standalone="no"?>
<!-- Created with Inkscape (http://www.inkscape.org/) -->

<svg
   width="114.1915mm"
   height="81.964203mm"
   viewBox="0 0 114.1915 81.964203"
   version="1.1"
   id="svg5"
   xml:space="preserve"
   sodipodi:docname="favicon.svg"
   inkscape:version="1.2.2 (732a01da63, 2022-12-09)"
   xmlns:inkscape="http://www.inkscape.org/namespaces/inkscape"
   xmlns:sodipodi="http://sodipodi.sourceforge.net/DTD/sodipodi-0.dtd"
   xmlns:xlink="http://www.w3.org/1999/xlink"
   xmlns="http://www.w3.org/2000/svg"
   xmlns:svg="http://www.w3.org/2000/svg"><sodipodi:namedview
     id="namedview7"
     pagecolor="#ffffff"
     bordercolor="#000000"
     borderopacity="0.25"
     inkscape:showpageshadow="2"
     inkscape:pageopacity="0.0"
     inkscape:pagecheckerboard="0"
     inkscape:deskcolor="#d1d1d1"
     inkscape:document-units="mm"
     showgrid="false"
     inkscape:zoom="0.72693603"
     inkscape:cx="360.41686"
     inkscape:cy="88.728578"
     inkscape:window-width="1920"
     inkscape:window-height="991"
     inkscape:window-x="-9"
     inkscape:window-y="-9"
     inkscape:window-maximized="1"
     inkscape:current-layer="layer1" /><defs
     id="defs2"><linearGradient
       inkscape:collect="always"
       id="linearGradient1075"><stop
         style="stop-color:#1976d2;stop-opacity:1;"
         offset="0.6014151"
         id="stop1071" /><stop
         style="stop-color:#000000;stop-opacity:1;"
         offset="1"
         id="stop1073" /></linearGradient><linearGradient
       inkscape:collect="always"
       id="linearGradient1067"><stop
         style="stop-color:#1976d2;stop-opacity:1;"
         offset="0"
         id="stop1063" /><stop
         style="stop-color:#000000;stop-opacity:1;"
         offset="1"
         id="stop1065" /></linearGradient><linearGradient
       inkscape:collect="always"
       xlink:href="#linearGradient1067"
       id="linearGradient1069"
       x1="103.66861"
       y1="110.0145"
       x2="162.0387"
       y2="110.0145"
       gradientUnits="userSpaceOnUse"
       gradientTransform="matrix(0.86971163,0,0,1,4.1683169,0)" /><linearGradient
       inkscape:collect="always"
       xlink:href="#linearGradient1075"
       id="linearGradient1077"
       x1="33.838776"
       y1="131.46103"
       x2="162.03455"
       y2="131.46103"
       gradientUnits="userSpaceOnUse"
       gradientTransform="matrix(0.86971163,0,0,1,4.1683169,0)" /></defs><g
     inkscape:label="Layer 1"
     inkscape:groupmode="layer"
     id="layer1"
     transform="translate(-31.993006,-90.418265)"><path
       id="path1024"
       style="display:inline;fill:url(#linearGradient1077);fill-opacity:1;stroke:#000000;stroke-width:0;stroke-opacity:0.596"
       d="m 67.467324,91.76029 c -2.096932,0.03194 -4.207079,0.168016 -6.256634,0.711764 -5.333726,1.314037 -10.411949,4.036472 -14.663291,7.974666 -4.094375,3.7707 -7.403036,8.64455 -9.638221,14.09789 -0.748669,1.80097 -1.353507,3.67496 -1.895359,5.56976 -0.417088,1.37138 -0.799383,2.76757 -0.950932,4.21528 -0.237312,2.12924 -0.261584,4.27974 -0.306014,6.42302 -0.08175,5.93194 -0.07859,11.86487 -0.110382,17.79733 -0.01995,5.711 -0.06011,11.42204 -0.04479,17.13311 0.0155,1.43598 -0.0021,-1.88711 0.102194,-0.45495 0.03897,0.40766 0.09451,0.91553 0.457749,1.10918 0.32257,0.13428 0.673903,0.023 1.004309,-0.0135 1.342881,-0.25207 2.665755,-0.64414 3.956294,-1.13805 2.696528,-1.10747 5.116504,0.63232 6.950885,-1.89311 1.363199,-1.86273 2.402809,-2.95721 3.178175,-5.21694 0.190268,-0.54767 0.402624,-1.09004 0.579407,-1.64095 0.114618,-4.90316 0.236004,-9.80632 0.285236,-14.71108 0.0493,-3.13955 0.02152,-6.28045 0.111906,-9.41914 0.0134,-0.37515 0.02573,-0.81933 0.04275,-1.19154 0.104936,-2.24444 0.23346,-4.52557 0.865117,-6.66999 0.72671,-2.36944 1.918377,-4.52221 3.31885,-6.43876 1.094812,-1.47602 2.327396,-2.83627 3.738794,-3.90752 1.354605,-0.97464 2.801498,-1.78191 4.302665,-2.4111 0.577552,-0.23742 1.227101,-0.39049 1.801424,-0.49814 0.414642,-0.075 0.848696,-0.13651 1.243045,-0.17904 2.02313,-0.20775 4.069712,-0.18336 6.082835,0.13923 0.911373,0.14379 1.809779,0.40137 2.659993,0.8086 3.915901,1.7532 7.339123,5.01547 9.428687,9.22398 0.857833,1.72833 1.520527,3.60195 1.81468,5.56951 0.294875,1.87212 0.420678,3.77117 0.560811,5.65566 0.222405,3.09036 0.49117,6.20028 1.245101,9.18927 0.837785,3.40805 2.012054,6.71338 3.569922,9.77193 2.686732,5.32265 6.477413,9.90022 10.9698,13.24581 3.95667,2.95831 8.43803,4.9711 13.079,5.94174 2.34352,0.44358 4.72801,0.54222 7.09916,0.46483 1.98279,-0.0762 3.97048,-0.29565 5.89913,-0.84964 2.69313,-0.73554 5.33449,-1.7582 7.82683,-3.14874 1.7956,-1.05893 3.49802,-2.31512 5.15568,-3.63497 1.09732,-0.88103 2.16836,-1.81135 3.14218,-2.86966 0.33907,-0.35309 0.67807,-0.70627 1.01734,-1.05911 -3.84524,-4.41039 -7.69067,-8.82057 -11.53567,-13.23123 -1.66766,1.35121 -3.27813,2.82669 -5.12119,3.85867 -1.65039,0.95423 -3.46888,1.48159 -5.30427,1.66947 -0.73228,0.0805 -1.4748,0.1175 -2.19391,0.13002 -0.84667,0.007 -1.70836,0.009 -2.53831,-0.0254 -0.22934,-0.0125 -0.51852,-0.0295 -0.77031,-0.0588 -1.21093,-0.11955 -2.35911,-0.62478 -3.47731,-1.14217 -0.21434,-0.10405 -0.465,-0.23223 -0.65362,-0.33115 -2.37307,-1.27239 -4.57828,-3.01408 -6.34765,-5.24441 -0.64037,-0.79928 -1.19304,-1.73064 -1.66699,-2.64151 -0.8823,-1.73339 -1.64547,-3.56032 -2.15199,-5.4862 -0.23431,-0.87067 -0.32297,-1.77915 -0.42284,-2.67971 -0.0277,-0.28048 -0.065,-0.63638 -0.0905,-0.92431 -0.11795,-1.26822 -0.20888,-2.51251 -0.28404,-3.7886 -0.20793,-3.438 -0.57253,-6.89619 -1.52329,-10.17939 -0.63412,-2.21508 -1.47017,-4.34803 -2.396213,-6.42045 -2.000076,-4.41284 -4.77476,-8.34989 -8.085769,-11.55108 -2.580271,-2.511287 -5.415552,-4.705429 -8.512653,-6.282989 -2.572857,-1.318649 -5.292635,-2.235181 -8.053496,-2.859849 -2.004821,-0.398793 -4.044816,-0.500192 -6.076358,-0.510117 -0.139323,8.63e-4 -0.278648,0.0017 -0.417973,0.0026 z"
       sodipodi:nodetypes="cccccccccccccccccccccccccccccccccccccccccccccccccccccccccccccc" /><path
       id="path1026"
       style="fill:url(#linearGradient1069);fill-opacity:1;stroke:#000000;stroke-width:0;stroke-opacity:0.596"
       d="m 120.10706,91.67089 c -2.29415,0.06089 -4.57724,0.427461 -6.8179,0.987256 -4.4217,1.113237 -8.66296,3.211962 -12.35803,6.225825 -1.672031,1.349309 -3.218039,2.894789 -4.668561,4.546429 -0.64417,0.71587 -1.288182,1.43192 -1.932456,2.14765 0.835958,1.43456 1.711044,2.83967 2.511118,4.30141 0.464113,0.85777 0.904987,1.74918 1.307542,2.62479 0.678871,1.47262 1.291531,2.98526 1.842432,4.52685 0.690685,1.95182 1.307445,3.99817 1.715945,6.07424 0.24325,1.15598 0.33493,2.34228 0.46534,3.51905 0.0913,0.57995 0.18265,1.15991 0.27398,1.73987 0.30307,-0.86564 0.63313,-1.71971 0.87178,-2.61293 0.41092,-1.47909 0.91626,-2.92746 1.58111,-4.28135 1.58967,-3.28786 3.95371,-6.06634 6.76381,-7.98977 0.3158,-0.21769 0.69267,-0.46398 1.04495,-0.66864 1.6041,-0.9604 3.37231,-1.53127 5.16794,-1.75065 0.19611,-0.0257 0.45852,-0.0544 0.68044,-0.0744 1.14741,-0.0997 2.30001,-0.10768 3.44943,-0.0537 0.2349,0.0142 0.53168,0.0333 0.78966,0.0565 0.34734,0.0309 0.74264,0.0799 1.05707,0.12797 0.26615,0.0434 0.47986,0.0787 0.74634,0.13383 1.83284,0.36419 3.58679,1.1724 5.16797,2.2921 1.3102,0.91486 2.51131,2.01519 3.75665,3.03885 3.8574,-4.42345 7.71436,-8.84741 11.57163,-13.27102 -1.05765,-1.08216 -2.09786,-2.19129 -3.23862,-3.15901 -1.87744,-1.612498 -3.85802,-3.07695 -5.95462,-4.284876 -4.26627,-2.421938 -8.95609,-3.891254 -13.71325,-4.161251 -0.69327,-0.03993 -1.3877,-0.04901 -2.0817,-0.03498 z" /><path
       id="path856"
       style="fill:#000000;stroke-width:0.246746"
       d="m 65.28934,90.457031 c -5.843184,0.465213 -11.557884,2.73069 -16.493945,6.337891 -7.276648,5.347678 -12.781081,13.815888 -15.071105,23.401628 -1.062307,4.26357 -1.419715,8.71982 -1.306543,13.14368 -0.02598,10.79913 0.182897,21.60064 0.06206,32.39805 0.057,0.55559 -0.719737,0.75534 -0.41617,1.28125 0.318634,0.76955 1.214691,0.33126 1.790382,0.44531 3.967167,-0.0742 8.090625,0.0192 11.822643,-1.75781 2.260767,-1.16256 3.958478,-3.55966 4.552702,-6.31653 1.041701,-4.05185 0.84958,-8.3269 1.014707,-12.50232 0.149708,-6.38486 0.142953,-12.77705 0.388069,-19.15734 0.118373,-1.70668 0.731347,-3.30933 1.384751,-4.89025 1.875698,-4.36514 5.219778,-7.83717 9.178139,-9.56226 2.787452,-1.2364 5.871312,-1.33373 8.806888,-0.9131 4.080661,0.68039 7.723869,3.55633 10.231002,7.16211 2.708999,3.67263 3.765101,8.64104 3.720056,13.33008 0.14633,8.95947 3.252345,17.69974 8.155608,24.6054 4.560229,6.35769 10.761286,11.19284 17.680456,13.42017 4.13613,1.41082 8.50307,1.67725 12.79019,1.40375 8.21671,-0.60717 16.11407,-4.87617 21.99197,-11.45862 0.55924,-0.63605 0.69909,-1.56177 0.56725,-2.42124 -0.10849,-3.96234 -1.24864,-8.17484 -4.04352,-10.71372 -2.46342,-2.29131 -5.77029,-3.10038 -8.87975,-2.75175 -1.88109,1.14292 -3.41331,2.91984 -5.37455,3.91015 -1.77336,1.01335 -3.79117,1.68709 -5.67613,1.71685 -2.88846,0.1586 -5.90027,-0.098 -8.51585,-1.60661 -3.14223,-1.69749 -5.6881,-4.6375 -7.56605,-7.95348 -2.16935,-4.15996 -2.65621,-9.30106 -1.84404,-14.01009 0.45998,-2.45012 1.42594,-4.83194 2.71201,-6.86737 2.43289,-3.86322 6.15543,-6.60927 10.19703,-7.63672 1.71579,-0.33813 3.47396,-0.34603 5.25662,-0.26049 2.62907,0.10553 5.18297,1.33413 7.32362,2.94213 1.10974,0.77783 2.08683,1.80157 3.21854,2.52628 1.06479,0.43293 2.21822,0.0682 3.30149,-0.0857 3.59398,-0.71264 7.04515,-3.23964 8.57736,-7.13985 0.97054,-2.32792 1.36313,-4.93911 1.29973,-7.50968 -0.7537,-1.68923 -2.231,-2.69989 -3.43936,-3.914051 -6.1087,-5.509019 -13.81826,-8.757981 -21.6117,-8.619766 -3.33309,0.028 -6.71439,0.172402 -9.92202,1.315719 -5.169,1.724789 -10.00791,4.736148 -14.043753,8.836688 -0.949264,0.95237 -1.864461,1.9501 -2.7412,2.98883 C 91.310597,99.963895 87.865011,96.695322 83.864775,94.564146 80.03675,92.364795 75.870491,90.824012 71.572196,90.606239 69.48295,90.4564 67.382085,90.360707 65.289341,90.457061 Z m 55.06702,2.652344 c 7.30466,-0.027 14.61868,2.721717 20.40377,7.875065 0.86707,0.74179 1.71391,1.51611 2.52637,2.33587 -3.21814,3.87705 -6.55309,7.62199 -9.84031,11.41992 -3.05041,-2.85939 -6.742,-5.04462 -10.73046,-5.30203 -4.04585,-0.43946 -8.29353,0.30822 -11.76828,2.84054 -3.53655,2.42005 -6.42259,6.12178 -8.03459,10.48493 -0.90223,-4.52594 -2.3996,-8.91966 -4.527377,-12.85234 -0.759137,-1.43193 -1.61936,-2.78879 -2.472782,-4.14766 1.199393,-1.39391 2.388272,-2.82136 3.737194,-4.03879 3.502965,-3.272751 7.582235,-5.714111 11.891425,-7.108505 2.82673,-0.924158 5.86309,-1.463915 8.81504,-1.507 z m -52.306704,0.04492 c 4.484481,-0.0538 8.975439,1.053267 13.052468,3.050781 4.607937,2.243199 8.728776,5.875524 12.109992,10.182904 3.224204,4.05345 5.401074,9.07814 6.888634,14.26225 1.11345,4.19249 1.08857,8.57884 1.40995,12.91523 0.24883,3.29877 1.14529,6.52466 2.67118,9.33703 2.85232,5.35351 7.76021,9.2122 13.13045,10.33038 2.85308,0.41382 5.79248,0.30268 8.58844,-0.49459 2.78677,-0.8793 5.30994,-2.6234 7.54712,-4.69336 3.29256,3.79557 6.58513,7.59115 9.87769,11.38672 -5.51646,5.75812 -12.71479,9.48941 -20.10322,10.12816 -4.86305,0.4538 -9.75943,-0.4033 -14.29215,-2.38176 -5.38025,-2.33718 -10.16028,-6.23061 -13.824453,-11.32058 -4.766971,-6.58182 -7.564105,-15.10207 -7.758722,-23.70039 -0.14826,-3.64625 -0.517019,-7.39695 -2.047989,-10.66015 -2.709217,-6.17396 -8.017804,-10.87524 -13.995991,-11.93522 -3.550511,-0.45011 -7.292971,-0.37128 -10.599873,1.35157 -5.32346,2.61697 -9.635238,8.02601 -11.170939,14.47683 -0.615199,3.098 -0.465753,6.30368 -0.585468,9.45765 -0.08914,5.16001 -0.171459,10.32017 -0.2516,15.48037 -4.641294,4.32943 -9.282587,8.65886 -13.92388,12.98829 0.08654,-11.96863 0.05229,-23.93945 0.263291,-35.90625 0.09247,-3.39142 1.053562,-6.64736 2.074222,-9.79787 1.841108,-5.43002 4.7829,-10.50527 8.464238,-14.40526 5.064885,-5.36134 11.613865,-8.828396 18.399723,-9.803162 1.328346,-0.176102 2.686718,-0.235304 4.076887,-0.249573 z" /></g></svg>
